<?xml version="1.0"?>
<svg xmlns="http://www.w3.org/2000/svg" xmlns:xlink="http://www.w3.org/1999/xlink" version="1.1" id="Capa_1" x="0px" y="0px" viewBox="0 0 512.003 512.003" style="enable-background:new 0 0 512.003 512.003;" xml:space="preserve" width="512px" height="512px" class="hovered-paths"><g><polygon style="fill:#C12020" points="443.736,503.467 503.469,332.8 349.869,332.8 " data-original="#0071BC" class="" data-old_color="#0071BC"/><rect x="119.469" y="76.8" style="fill:#F8F1DA" width="298.667" height="392.533" data-original="#B2DECF" class="hovered-path active-path" data-old_color="#B2DECF"/><rect x="85.336" y="42.667" style="fill:#F8F1DA" width="298.667" height="358.4" data-original="#E6E6E6" class="" data-old_color="#E6E6E6"/><polygon style="fill:#A1C5A2" points="443.736,503.467 349.869,332.8 8.536,332.8 102.403,503.467 " data-original="#29ABE2" class="" data-old_color="#29ABE2"/><polygon style="fill:#C12020" points="290.136,119.467 256.003,119.467 256.003,85.333 221.869,85.333 221.869,119.467   187.736,119.467 187.736,153.6 221.869,153.6 221.869,187.733 256.003,187.733 256.003,153.6 290.136,153.6 " data-original="#0071BC" class="" data-old_color="#0071BC"/><path d="M510.424,327.859c-1.596-2.253-4.19-3.593-6.955-3.593h-76.8V76.8c0-4.71-3.823-8.533-8.533-8.533h-25.6v-25.6  c0-4.71-3.823-8.533-8.533-8.533h-204.8C179.203,15.283,163.919,0,145.069,0s-34.133,15.283-34.133,34.133h-25.6  c-4.71,0-8.533,3.823-8.533,8.533v281.6H8.536c-4.71,0-8.533,3.823-8.533,8.533c0,1.434,0.367,2.85,1.058,4.113L94.927,507.58  c1.502,2.722,4.369,4.42,7.475,4.42h341.333c3.652,0.102,6.929-2.244,8.004-5.734h0.051l59.733-170.667  C512.438,332.996,512.02,330.112,510.424,327.859z M409.603,85.333v338.372l-17.143-31.172h0.077v-307.2H409.603z M145.069,17.067  c9.429,0,17.067,7.637,17.067,17.067h-34.133C128.003,24.704,135.648,17.067,145.069,17.067z M93.869,51.2h68.267v25.6  c0,4.71-3.823,8.533-8.533,8.533s-8.533-3.823-8.533-8.533v-8.533h-17.067V76.8c0,14.14,11.46,25.6,25.6,25.6  c14.14,0,25.6-11.46,25.6-25.6V51.2h196.267v310.443l-18.125-32.956c-1.493-2.722-4.361-4.42-7.475-4.42h-256V51.2z   M107.446,494.933l-84.48-153.6h321.86l84.48,153.6H107.446z M442.029,482.603l-15.36-27.87v-113.4h64.768L442.029,482.603z" data-original="#000000" class="" style="fill:#000000" data-old_color="#000000"/><path d="M460.803,68.267c0-18.85-15.283-34.133-34.133-34.133h-17.067V51.2h17.067c9.429,0,17.067,7.637,17.067,17.067v119.467  h17.067V68.267z" data-original="#000000" class="" style="fill:#000000" data-old_color="#000000"/><rect x="443.736" y="204.8" width="17.067" height="17.067" data-original="#000000" class="" style="fill:#000000" data-old_color="#000000"/><rect x="42.669" y="170.667" width="17.067" height="119.467" data-original="#000000" class="" style="fill:#000000" data-old_color="#000000"/><rect x="42.669" y="136.533" width="17.067" height="17.067" data-original="#000000" class="" style="fill:#000000" data-old_color="#000000"/><path d="M187.736,162.133h25.6v25.6c0,4.71,3.823,8.533,8.533,8.533h34.133c4.71,0,8.533-3.823,8.533-8.533v-25.6h25.6  c4.71,0,8.533-3.823,8.533-8.533v-34.133c0-4.71-3.823-8.533-8.533-8.533h-25.6v-25.6c0-4.71-3.823-8.533-8.533-8.533h-34.133  c-4.71,0-8.533,3.823-8.533,8.533v25.6h-25.6c-4.71,0-8.533,3.823-8.533,8.533V153.6  C179.203,158.31,183.025,162.133,187.736,162.133z M196.269,128h25.6c4.71,0,8.533-3.823,8.533-8.533v-25.6h17.067v25.6  c0,4.71,3.823,8.533,8.533,8.533h25.6v17.067h-25.6c-4.71,0-8.533,3.823-8.533,8.533v25.6h-17.067v-25.6  c0-4.71-3.823-8.533-8.533-8.533h-25.6V128z" data-original="#000000" class="" style="fill:#000000" data-old_color="#000000"/><rect x="136.536" y="213.333" width="17.067" height="17.067" data-original="#000000" class="" style="fill:#000000" data-old_color="#000000"/><rect x="170.669" y="213.333" width="179.2" height="17.067" data-original="#000000" class="" style="fill:#000000" data-old_color="#000000"/><rect x="119.469" y="247.467" width="230.4" height="17.067" data-original="#000000" class="" style="fill:#000000" data-old_color="#000000"/><rect x="119.469" y="281.6" width="196.267" height="17.067" data-original="#000000" class="" style="fill:#000000" data-old_color="#000000"/><rect x="339.877" y="76.8" width="17.553" height="17.067" data-original="#000000" class="" style="fill:#000000" data-old_color="#000000"/><rect x="341.336" y="110.933" width="17.067" height="17.067" data-original="#000000" class="" style="fill:#000000" data-old_color="#000000"/></g> </svg>
